# xmcd
#
# Track frame offsets: 
#        150
#        19580
#        34086
#        57830
#        76851
#        95733
#        122491
#        155582
#        176173
#        197780
#        217279
#        247032
#        296774
#
# Disc length: 4277 seconds
#
# Revision: 0
# Processed by: cddbd v1.5.2PL0 Copyright (c) Steve Scherf et al.
# Submitted via: ExactAudioCopy v0.99pb5
#
DISCID=bd10b30d
DTITLE=Jack Bruce  - 1st Reunion Since CREAM 10.10.88  FLAC
DYEAR=1900
DGENRE=
TTITLE0=As You Said
TTITLE1=Rope Ladder To The Moon
TTITLE2=He The Richmond
TTITLE3=The First Time I Met The Blues
TTITLE4=Deserted Cities Of The Heart
TTITLE5=White Room
TTITLE6=Born Under A Bad Sign
TTITLE7=Tickets To Waterfalls
TTITLE8=Theme To An Imaginary Western
TTITLE9=Sitting On Top Of The World
TTITLE10=Politician
TTITLE11=Spoonful
TTITLE12=Sunshine Of Your Love
EXTD=
EXTT0=
EXTT1=
EXTT2=
EXTT3=
EXTT4=
EXTT5=
EXTT6=
EXTT7=
EXTT8=
EXTT9=
EXTT10=
EXTT11=
EXTT12=
PLAYORDER=
